<?xml version="1.0" standalone="no"?>
<!DOCTYPE svg PUBLIC "-//W3C//DTD SVG 20010904//EN"
 "http://www.w3.org/TR/2001/REC-SVG-20010904/DTD/svg10.dtd">
<svg version="1.0" xmlns="http://www.w3.org/2000/svg"
 width="731.000000pt" height="341.000000pt" viewBox="0 0 731.000000 341.000000"
 preserveAspectRatio="xMidYMid meet">

<g transform="translate(0.000000,341.000000) scale(0.100000,-0.100000)"
fill="#FFB77A" stroke="none">
<path d="M3305 2875 c-225 -19 -342 -34 -425 -54 -41 -11 -95 -22 -120 -26
-103 -17 -354 -98 -495 -160 -140 -62 -293 -151 -410 -239 -46 -35 -210 -200
-241 -242 -112 -156 -180 -404 -144 -529 6 -22 16 -58 22 -80 27 -98 100 -229
180 -322 139 -162 433 -355 674 -443 224 -83 424 -137 601 -165 291 -46 316
-48 623 -49 307 0 340 2 605 45 223 36 392 81 644 174 77 28 293 140 371 192
284 190 446 408 491 661 16 95 -1 214 -48 335 -96 246 -300 437 -668 626 -139
71 -449 176 -590 200 -33 6 -91 17 -130 25 -94 20 -206 34 -415 51 -206 17
-320 17 -525 0z m650 -43 c284 -39 432 -70 620 -129 177 -55 245 -84 468 -200
15 -8 53 -33 85 -54 31 -22 74 -51 95 -65 40 -26 199 -183 233 -230 47 -66 93
-154 120 -229 26 -71 29 -93 29 -200 0 -105 -3 -130 -28 -203 -72 -212 -255
-416 -508 -566 -39 -23 -238 -122 -294 -146 -46 -20 -197 -72 -249 -85 -31 -8
-82 -22 -113 -30 -74 -20 -227 -49 -373 -72 -145 -22 -739 -26 -885 -5 -189
27 -348 58 -475 93 -19 6 -51 14 -70 19 -135 35 -400 148 -497 212 -23 16 -44
28 -47 28 -12 0 -146 92 -146 100 0 5 -8 11 -18 14 -16 5 -100 87 -177 171
-61 66 -136 200 -156 277 -31 119 -31 261 -2 368 45 163 189 355 358 481 33
24 62 47 63 52 2 4 8 7 14 7 5 0 28 13 51 28 23 16 56 36 72 44 17 8 66 33
110 56 140 70 376 154 525 186 41 9 91 21 110 26 45 13 219 39 339 51 52 5 97
12 100 15 9 9 568 -4 646 -14z"/>
<path d="M3345 2805 c-176 -12 -260 -22 -375 -45 -25 -4 -81 -15 -125 -23
-136 -26 -350 -94 -499 -159 -94 -40 -281 -143 -331 -182 -232 -178 -344 -322
-396 -513 -18 -65 -21 -95 -16 -188 5 -122 26 -196 84 -299 54 -94 188 -245
263 -294 14 -9 44 -31 68 -49 100 -76 292 -174 461 -238 240 -89 468 -137 821
-170 637 -61 1364 93 1795 380 202 134 358 311 417 473 4 12 14 34 21 48 8 18
12 77 12 173 0 144 -3 159 -41 248 -8 17 -14 34 -14 37 0 10 -62 109 -95 150
-40 51 -141 150 -207 203 -208 163 -563 315 -888 380 -41 8 -95 19 -120 24
-133 26 -270 39 -570 53 -41 2 -160 -2 -265 -9z m105 -160 c18 -22 6 -41 -47
-76 -47 -31 -48 -31 -14 -25 18 3 45 6 60 6 25 0 26 3 23 38 -3 28 1 42 17 56
19 18 21 18 27 1 4 -9 -1 -32 -10 -51 -9 -19 -16 -37 -16 -39 0 -3 17 -5 37
-5 33 0 35 1 18 14 -11 8 -16 19 -12 30 9 22 83 56 124 56 38 0 105 -29 100
-44 -5 -15 -67 -45 -97 -47 -17 -1 -12 -4 18 -11 41 -9 45 -8 83 26 21 20 44
36 49 36 18 0 10 -26 -15 -50 -28 -26 -25 -40 10 -40 17 0 22 4 18 18 -7 28
30 53 81 55 39 2 50 -2 73 -27 25 -28 26 -29 8 -42 -10 -8 -33 -14 -49 -14
-17 0 -38 -5 -46 -10 -10 -6 10 -7 58 -3 61 5 72 4 72 -10 0 -9 -10 -18 -22
-20 -15 -3 -9 -5 14 -6 72 -2 128 -39 128 -83 0 -35 -19 -44 -57 -25 -51 26
-74 30 -67 13 9 -23 -16 -20 -42 5 -18 17 -20 26 -14 55 7 28 6 33 -5 24 -8
-6 -25 -8 -41 -4 l-28 7 23 -24 c25 -27 51 -76 51 -96 0 -25 -35 -13 -81 30
-25 23 -48 49 -52 57 -5 13 -7 12 -17 -2 -16 -26 -88 -23 -160 6 -47 19 -60
22 -60 10 0 -32 -67 2 -94 47 -18 30 -55 39 -84 20 -10 -6 -5 -12 20 -20 54
-19 108 -59 108 -81 0 -18 -7 -20 -72 -20 -76 0 -140 21 -167 53 -15 19 -9 23
38 29 29 4 41 28 14 28 -20 0 -80 -20 -101 -33 -9 -7 -6 -14 13 -29 26 -20 34
-48 13 -48 -7 0 -27 14 -45 32 l-32 31 -51 -31 c-28 -18 -54 -32 -57 -32 -2 0
-16 -9 -30 -20 -29 -23 -53 -26 -53 -7 1 27 130 112 224 147 22 8 26 14 18 22
-19 19 -14 42 16 70 64 61 154 87 182 53z m-1182 -661 c46 -14 67 -28 124 -86
38 -38 66 -74 62 -79 -3 -5 4 -21 15 -35 40 -51 18 -190 -41 -251 -56 -58
-116 -76 -253 -76 -101 0 -128 3 -169 21 -95 43 -181 143 -192 224 -16 118 28
229 103 260 21 9 49 20 63 26 40 17 224 14 288 -4z m767 0 c20 -8 59 -36 86
-60 38 -37 50 -56 60 -97 13 -61 1 -123 -31 -152 -11 -10 -20 -23 -20 -29 0
-6 34 -47 74 -91 50 -53 71 -84 65 -91 -12 -15 -144 -18 -170 -3 -25 13 -57
45 -113 112 l-38 47 -74 0 -74 0 0 -79 c0 -90 -1 -91 -89 -86 -39 2 -59 10
-85 31 l-35 29 0 236 c-1 130 2 239 6 242 3 4 95 7 203 7 156 0 205 -3 235
-16z m677 -21 c29 -32 130 -170 188 -258 16 -24 96 -138 155 -221 14 -19 4
-25 -58 -31 -77 -8 -102 1 -153 54 l-45 46 -117 -1 c-110 0 -117 -1 -135 -24
-66 -84 -60 -81 -147 -76 -72 4 -84 8 -110 33 -34 33 -36 43 -14 70 18 24 151
210 202 284 111 162 110 161 157 161 34 0 47 -6 77 -37z m532 -45 c50 -45 106
-97 125 -115 19 -19 38 -30 42 -26 5 5 10 55 11 113 l3 105 65 3 c57 2 69 0
92 -20 46 -41 48 -55 48 -287 0 -208 -1 -221 -19 -231 -11 -5 -30 -8 -43 -6
-13 3 -30 5 -38 5 -9 1 -40 25 -71 54 -120 113 -181 167 -190 167 -5 0 -9 -44
-9 -98 0 -128 -6 -136 -90 -130 -55 4 -66 8 -91 36 l-29 32 0 233 c0 129 3
237 7 240 3 4 27 7 51 7 42 0 51 -5 136 -82z m914 63 c130 -48 202 -150 202
-286 0 -76 -25 -139 -71 -179 -60 -51 -108 -60 -321 -61 l-187 0 -30 29 -31
30 0 243 0 243 193 0 c166 0 200 -3 245 -19z m-1963 -802 c15 -13 38 -41 51
-61 27 -42 39 -47 47 -19 10 40 183 14 257 -39 32 -23 40 -19 15 7 -18 17 -11
33 14 33 23 0 101 -78 101 -102 0 -17 5 -18 53 -12 28 3 77 13 107 21 30 8 69
18 86 22 63 16 68 24 34 56 -16 16 -30 35 -30 42 0 23 29 14 64 -22 l35 -34
44 19 c24 11 50 27 57 35 7 8 17 15 22 15 5 0 26 11 46 25 37 25 72 33 72 16
0 -27 -143 -125 -235 -161 -33 -13 -69 -28 -80 -33 -19 -10 -19 -11 5 -17 53
-13 30 -62 -55 -119 -81 -55 -156 -64 -183 -21 -16 27 -13 31 61 79 l62 41
-55 0 c-68 0 -75 -5 -83 -54 -8 -49 -35 -92 -49 -78 -16 16 0 79 24 96 20 14
19 15 -16 21 -20 4 -43 4 -52 1 -15 -6 -15 -8 2 -21 26 -19 11 -43 -46 -73
-45 -24 -147 -33 -159 -15 -3 6 -18 13 -33 17 -65 15 0 65 105 80 69 10 58 26
-19 26 -62 0 -68 -2 -113 -40 -26 -22 -53 -40 -59 -40 -21 0 -13 26 18 55 17
16 30 31 30 35 0 3 -20 10 -45 16 -44 10 -44 10 -25 -8 29 -27 11 -53 -51 -73
-66 -22 -116 -10 -143 35 -10 17 -16 33 -14 34 9 8 101 26 135 27 l38 1 -30
13 c-16 7 -33 11 -36 9 -3 -2 -31 -7 -62 -12 -43 -7 -60 -6 -68 4 -7 9 -6 15
6 22 13 7 7 12 -32 21 -96 25 -132 53 -129 103 2 41 28 48 83 20 21 -11 48
-22 59 -26 19 -6 21 -3 16 19 -6 33 8 32 42 -4 24 -25 27 -34 21 -63 -4 -18
-12 -39 -17 -45 -15 -19 11 -17 32 2 13 12 23 13 44 5 46 -17 48 -11 9 24 -33
29 -63 90 -63 125 0 15 54 -4 85 -30z m665 -68 c40 -19 55 -32 55 -46 0 -16
-8 -21 -35 -23 -19 -2 -39 -8 -44 -13 -25 -24 -126 1 -180 45 -41 32 -47 63
-13 69 55 9 164 -6 217 -32z"/>
<path d="M3533 2493 c16 -16 18 -16 34 0 16 16 15 17 -17 17 -32 0 -33 -1 -17
-17z"/>
<path d="M3715 2490 c-2 -4 7 -12 21 -19 32 -14 34 -14 34 3 0 14 -47 28 -55
16z"/>
<path d="M1981 1963 c-40 -8 -100 -54 -116 -87 -8 -17 -19 -52 -26 -78 -16
-67 9 -150 61 -199 35 -33 47 -38 126 -50 119 -17 243 -1 294 40 51 40 81 104
78 166 l-3 50 -135 0 -135 0 -3 -47 -3 -48 75 0 c41 0 77 -4 81 -9 3 -5 -9
-20 -27 -33 -30 -21 -44 -23 -133 -22 -116 1 -154 16 -173 68 -16 43 -15 61 3
96 25 48 61 60 172 59 76 0 105 -5 128 -19 29 -17 31 -17 68 3 49 27 47 50 -5
84 -41 26 -50 28 -173 29 -71 1 -141 0 -154 -3z m258 -23 c18 -5 45 -17 58
-26 23 -15 24 -17 9 -32 -14 -14 -20 -14 -69 1 -32 10 -86 17 -134 17 -139 0
-205 -57 -188 -164 14 -93 52 -116 193 -116 112 0 145 10 181 56 36 46 29 54
-48 54 -48 0 -72 4 -81 15 -23 27 0 35 106 35 123 0 126 -3 97 -88 -17 -51
-25 -60 -73 -89 -53 -32 -57 -33 -172 -33 -98 0 -125 3 -157 20 -78 39 -112
114 -97 212 11 68 56 112 146 142 27 8 195 6 229 -4z"/>
<path d="M2050 1758 c-23 -25 -35 -61 -25 -77 3 -6 24 -11 47 -11 32 0 39 3
34 16 -3 9 -6 33 -6 55 0 46 -18 51 -50 17z"/>
<path d="M2622 1758 l3 -213 40 0 40 0 3 60 c4 110 0 105 102 105 l89 0 62
-72 c74 -87 90 -97 152 -98 57 0 60 11 14 59 -17 19 -46 53 -64 75 l-32 41 32
33 c28 29 32 39 32 90 0 70 -28 116 -76 126 -17 3 -114 6 -215 6 l-184 0 2
-212z m405 172 c64 -39 63 -140 -2 -180 -40 -25 -41 -23 32 -106 29 -33 50
-64 46 -67 -16 -17 -52 -5 -76 26 -14 17 -45 53 -69 80 l-44 47 -112 0 -112 0
0 -81 c0 -78 -1 -80 -22 -77 -23 3 -23 5 -26 178 -1 96 0 180 2 187 4 10 47
13 178 13 154 0 177 -2 205 -20z"/>
<path d="M2692 1843 l3 -58 148 0 c144 0 149 1 168 24 24 30 24 42 -1 69 -20
21 -29 22 -171 22 l-150 0 3 -57z m303 -3 l0 -25 -138 -3 c-116 -2 -138 0
-143 13 -4 8 -4 22 0 30 5 13 27 15 143 13 l138 -3 0 -25z"/>
<path d="M3573 1930 c-18 -21 -33 -42 -33 -46 0 -3 -12 -21 -27 -40 -16 -18
-43 -54 -61 -81 -18 -26 -58 -83 -88 -125 -30 -43 -52 -82 -49 -88 3 -5 26
-10 50 -10 40 0 47 4 86 50 l42 50 138 0 138 0 42 -50 c40 -47 45 -50 91 -50
26 0 48 5 48 10 0 9 -145 227 -159 240 -3 3 -32 44 -64 93 -52 80 -60 87 -90
87 -25 0 -39 -9 -64 -40z m101 -17 c39 -54 102 -143 126 -178 12 -16 39 -54
60 -84 46 -63 50 -81 15 -81 -17 0 -29 9 -39 28 -8 15 -24 37 -36 50 -20 21
-28 22 -169 22 l-149 0 -38 -50 c-26 -34 -45 -50 -61 -50 -13 0 -23 4 -23 10
0 8 77 123 103 155 4 6 35 48 68 95 99 141 100 141 143 83z"/>
<path d="M3573 1803 c-29 -42 -50 -79 -48 -82 3 -2 52 -6 110 -8 83 -2 105 0
105 10 0 16 -97 157 -108 157 -4 -1 -30 -35 -59 -77z m97 -7 c16 -25 30 -47
30 -50 0 -3 -29 -6 -65 -6 -36 0 -65 4 -65 8 0 10 58 92 65 92 2 0 18 -20 35
-44z"/>
<path d="M4077 1963 c-4 -3 -7 -95 -7 -203 0 -219 2 -224 62 -218 l33 3 3 115
c3 129 6 145 26 133 7 -4 66 -57 130 -118 125 -118 155 -138 189 -133 22 3 22
5 25 216 l2 212 -50 0 -50 0 0 -125 c0 -81 -4 -125 -10 -125 -6 0 -26 15 -45
33 -18 17 -64 60 -102 93 -37 34 -83 76 -100 93 -31 30 -88 43 -106 24z m144
-90 c46 -43 117 -109 156 -147 40 -38 76 -66 80 -62 4 4 8 65 8 136 0 136 9
166 40 140 13 -11 15 -39 13 -189 -3 -167 -4 -176 -23 -179 -11 -1 -35 11 -55
29 -69 62 -216 197 -248 228 -18 18 -37 29 -42 26 -6 -4 -10 -67 -10 -146 0
-132 -1 -139 -20 -139 -19 0 -20 7 -20 183 0 101 3 187 7 190 15 16 35 3 114
-70z"/>
<path d="M4742 1758 l3 -213 140 -3 c188 -4 272 10 324 55 46 39 61 80 61 167
0 76 -27 131 -83 171 l-42 30 -203 3 -202 4 2 -214z m415 165 c68 -36 88 -74
88 -164 0 -67 -3 -79 -28 -112 -52 -68 -83 -77 -277 -77 l-170 0 0 183 c0 101
3 187 7 191 5 4 82 6 173 4 147 -3 169 -6 207 -25z"/>
<path d="M4817 1894 c-4 -4 -7 -67 -7 -141 l0 -133 141 0 c189 0 236 22 246
113 7 63 -10 107 -54 137 -34 23 -46 25 -177 28 -78 2 -145 0 -149 -4z m303
-39 c33 -17 60 -61 60 -97 0 -31 -33 -84 -62 -99 -15 -8 -68 -13 -148 -13
l-125 -1 -3 113 -3 112 126 0 c93 0 134 -4 155 -15z"/>
<path d="M4924 1776 c-3 -7 -4 -33 -2 -57 l3 -44 74 -3 c89 -4 125 9 142 50
22 53 6 63 -110 66 -80 2 -102 0 -107 -12z"/>
<path d="M3266 1045 c-19 -15 -19 -15 2 -15 13 0 22 6 22 15 0 18 0 18 -24 0z"/>
<path d="M3332 1038 c2 -18 13 -25 53 -34 65 -14 265 -26 265 -16 0 5 -13 18
-29 30 l-29 21 -5 -21 c-6 -20 -10 -21 -75 -15 -64 6 -121 23 -165 48 -16 9
-18 7 -15 -13z"/>
</g>
</svg>
