<?xml version="1.0" standalone="no"?>
<!DOCTYPE svg PUBLIC "-//W3C//DTD SVG 20010904//EN"
 "http://www.w3.org/TR/2001/REC-SVG-20010904/DTD/svg10.dtd">
<svg version="1.0" xmlns="http://www.w3.org/2000/svg"
 width="500.000000pt" height="499.000000pt" viewBox="0 0 500.000000 499.000000"
 preserveAspectRatio="xMidYMid meet">

<g transform="translate(0.000000,499.000000) scale(0.100000,-0.100000)"
fill="#FFB77A" stroke="none">
<path d="M2181 4974 c-458 -66 -908 -260 -1251 -538 -114 -92 -298 -279 -391
-398 -321 -407 -507 -916 -526 -1433 -33 -925 422 -1767 1212 -2242 306 -184
628 -290 1025 -339 172 -21 348 -28 374 -16 12 6 74 15 140 21 457 44 908 231
1291 536 450 358 763 874 874 1440 110 563 44 1082 -202 1595 -114 237 -270
454 -471 655 -404 403 -883 640 -1454 719 -140 20 -486 20 -621 0z m1417
-1494 c41 -25 62 -73 62 -142 0 -156 -104 -854 -240 -1613 -59 -324 -72 -368
-133 -433 -54 -56 -135 -64 -233 -22 -22 10 -117 69 -210 132 -93 63 -268 181
-389 263 -259 174 -307 212 -330 261 -15 31 -16 43 -5 77 15 52 53 91 435 452
382 360 427 408 423 444 -8 66 -18 60 -713 -407 -242 -162 -468 -309 -503
-325 -119 -56 -214 -48 -512 43 -179 54 -275 94 -296 124 -8 11 -14 34 -14 50
0 55 56 93 280 190 1403 606 1972 843 2165 901 101 30 169 32 213 5z"/>
</g>
</svg>
